<?xml version="1.0" encoding="UTF-8"?>
<!DOCTYPE svg PUBLIC "-//W3C//DTD SVG 1.1//EN" "http://www.w3.org/Graphics/SVG/1.1/DTD/svg11.dtd">
<svg xmlns="http://www.w3.org/2000/svg" version="1.1" width="589px" height="262px" style="shape-rendering:geometricPrecision; text-rendering:geometricPrecision; image-rendering:optimizeQuality; fill-rule:evenodd; clip-rule:evenodd" xmlns:xlink="http://www.w3.org/1999/xlink">
<g><path style="opacity:1" fill="#2e3192" d="M -0.5,-0.5 C 195.833,-0.5 392.167,-0.5 588.5,-0.5C 588.5,86.8333 588.5,174.167 588.5,261.5C 392.167,261.5 195.833,261.5 -0.5,261.5C -0.5,174.167 -0.5,86.8333 -0.5,-0.5 Z"/></g>
<g><path style="opacity:1" fill="#4c499d" d="M 92.5,67.5 C 91.6236,67.3691 90.9569,67.7025 90.5,68.5C 91.7467,71.3286 93.2467,73.9952 95,76.5C 95.4828,75.552 95.6495,74.552 95.5,73.5C 96.7652,75.3569 96.4318,77.0236 94.5,78.5C 92.1084,75.4022 89.9417,72.0689 88,68.5C 87.1072,67.2888 86.2739,67.2888 85.5,68.5C 88.4148,73.9984 91.5815,79.3318 95,84.5C 95.4828,83.552 95.6495,82.552 95.5,81.5C 96.1654,84.9841 96.4987,88.6508 96.5,92.5C 96.4888,96.5652 95.8222,100.232 94.5,103.5C 91.4675,99.9392 88.9675,95.9392 87,91.5C 85.6081,89.1582 84.7748,89.1582 84.5,91.5C 83.2348,89.6431 83.5682,87.9764 85.5,86.5C 88.8036,91.3263 91.9703,96.3263 95,101.5C 95.6667,100.167 95.6667,98.8333 95,97.5C 91.9188,91.6688 88.5855,86.0021 85,80.5C 84.5172,81.448 84.3505,82.448 84.5,83.5C 83.3773,81.312 83.3773,78.9787 84.5,76.5C 88.137,81.6576 91.637,86.9909 95,92.5C 95.1667,91.8333 95.3333,91.1667 95.5,90.5C 92.6361,84.1344 89.1361,78.1344 85,72.5C 84.5357,73.0944 84.369,73.7611 84.5,74.5C 83.1716,73.0903 83.5049,71.9236 85.5,71C 84.376,70.7508 83.376,70.2508 82.5,69.5C 85.1867,65.0957 88.52,64.429 92.5,67.5 Z"/></g>
<g><path style="opacity:1" fill="#eff4fc" d="M 290.5,67.5 C 293.128,68.6248 293.961,70.6248 293,73.5C 291.878,71.5932 291.045,69.5932 290.5,67.5 Z"/></g>
<g><path style="opacity:1" fill="#d9dbef" d="M 135.5,67.5 C 136.496,67.4142 137.329,67.7476 138,68.5C 139.885,70.9141 140.552,73.5808 140,76.5C 137.94,73.7143 136.44,70.7143 135.5,67.5 Z"/></g>
<g><path style="opacity:1" fill="#e1e8f3" d="M 389.5,68.5 C 390.542,67.2089 391.708,67.2089 393,68.5C 394.779,70.9231 395.446,73.5897 395,76.5C 393.391,73.5932 391.558,70.9266 389.5,68.5 Z"/></g>
<g><path style="opacity:1" fill="#dfe5ee" d="M 429.5,66.5 C 430.496,66.4142 431.329,66.7476 432,67.5C 433.96,70.5849 435.793,73.7515 437.5,77C 436.365,77.7494 435.365,77.5827 434.5,76.5C 432.295,73.4234 430.628,70.0901 429.5,66.5 Z"/></g>
<g><path style="opacity:1" fill="#e5e8f3" d="M 94.5,78.5 C 94.5569,79.609 94.8902,80.609 95.5,81.5C 95.6495,82.552 95.4828,83.552 95,84.5C 91.5815,79.3318 88.4148,73.9984 85.5,68.5C 86.2739,67.2888 87.1072,67.2888 88,68.5C 89.9417,72.0689 92.1084,75.4022 94.5,78.5 Z"/></g>
<g><path style="opacity:1" fill="#e2e6f2" d="M 130.5,67.5 C 131.496,67.4142 132.329,67.7476 133,68.5C 134.934,72.7594 137.268,76.7594 140,80.5C 140.667,81.8333 140.667,83.1667 140,84.5C 136.176,79.1822 133.009,73.5155 130.5,67.5 Z"/></g>
<g><path style="opacity:1" fill="#e7eaf2" d="M 489.5,67.5 C 490.675,67.281 491.675,67.6143 492.5,68.5C 493.747,71.3286 495.247,73.9952 497,76.5C 497.749,77.635 497.583,78.635 496.5,79.5C 493.639,75.7729 491.305,71.7729 489.5,67.5 Z"/></g>
<g><path style="opacity:1" fill="#d9dcea" d="M 494.5,67.5 C 497.246,67.9276 498.913,69.5943 499.5,72.5C 499.167,72.8333 498.833,73.1667 498.5,73.5C 496.167,72.1678 494.834,70.1678 494.5,67.5 Z"/></g>
<g><path style="opacity:1" fill="#dae0ef" d="M 164.5,66.5 C 167.754,67.673 168.92,70.0063 168,73.5C 166.295,71.4234 165.128,69.09 164.5,66.5 Z"/></g>
<g><path style="opacity:1" fill="#e0e4f0" d="M 185.5,67.5 C 186.496,67.4142 187.329,67.7476 188,68.5C 189.497,72.1649 191.497,75.4983 194,78.5C 194.781,79.9437 194.614,81.277 193.5,82.5C 190.029,77.8885 187.362,72.8885 185.5,67.5 Z"/></g>
<g><path style="opacity:1" fill="#e4e7f2" d="M 210.5,67.5 C 211.496,67.4142 212.329,67.7476 213,68.5C 215.333,72.5 217.667,76.5 220,80.5C 221.301,82.3646 221.635,84.3646 221,86.5C 216.949,80.3909 213.449,74.0575 210.5,67.5 Z"/></g>
<g><path style="opacity:1" fill="#e4eaf5" d="M 214.5,66.5 C 215.496,66.4142 216.329,66.7476 217,67.5C 218.271,70.4326 219.938,73.0993 222,75.5C 222.563,76.7248 222.23,77.7248 221,78.5C 218.554,74.6056 216.388,70.6056 214.5,66.5 Z"/></g>
<g><path style="opacity:1" fill="#e2e6f4" d="M 287.5,67.5 C 288.913,70.6612 290.58,73.6612 292.5,76.5C 292.649,77.552 292.483,78.552 292,79.5C 289.451,76.235 287.284,72.735 285.5,69C 285.836,67.9701 286.503,67.4701 287.5,67.5 Z"/></g>
<g><path style="opacity:1" fill="#e2e8f3" d="M 329.5,66.5 C 331.624,67.0312 333.124,68.3645 334,70.5C 334.914,72.6641 336.081,74.6641 337.5,76.5C 336.132,77.5937 334.965,77.2603 334,75.5C 332.239,72.5889 330.739,69.5889 329.5,66.5 Z"/></g>
<g><path style="opacity:1" fill="#d2d7ec" d="M 469.5,68.5 C 470.189,67.2264 471.023,67.2264 472,68.5C 473.885,70.9141 474.552,73.5808 474,76.5C 472.726,73.6089 471.226,70.9422 469.5,68.5 Z"/></g>
<g><path style="opacity:1" fill="#d7dced" d="M 189.5,66.5 C 193.637,68.4913 195.471,71.8246 195,76.5C 192.888,73.2729 191.055,69.9396 189.5,66.5 Z"/></g>
<g><path style="opacity:1" fill="#4f4c9d" d="M 239.5,71.5 C 238.579,70.019 237.412,68.6856 236,67.5C 235.5,67.8333 235,68.1667 234.5,68.5C 236.193,71.1841 237.86,73.8508 239.5,76.5C 238.844,77.2778 238.011,77.9444 237,78.5C 236.235,78.4301 235.735,78.0967 235.5,77.5C 236.376,77.6309 237.043,77.2975 237.5,76.5C 235.833,73.8333 234.167,71.1667 232.5,68.5C 231.635,67.4173 230.635,67.2506 229.5,68C 231.052,70.9432 232.719,73.7765 234.5,76.5C 233.739,77.3909 232.739,78.0576 231.5,78.5C 230.287,78.2528 229.62,77.5862 229.5,76.5C 228.739,77.3909 227.739,78.0576 226.5,78.5C 225.287,78.2528 224.62,77.5862 224.5,76.5C 225.575,77.5624 226.575,77.5624 227.5,76.5C 225.376,73.7206 223.709,70.7206 222.5,67.5C 223.151,66.9094 223.818,66.2427 224.5,65.5C 230.005,65.9545 235.671,66.4545 241.5,67C 242.337,68.0113 242.67,69.1779 242.5,70.5C 241.209,70.2627 240.209,70.596 239.5,71.5 Z"/></g>
<g><path style="opacity:1" fill="#e0e7f3" d="M 235.5,77.5 C 234.833,77.5 234.5,77.1667 234.5,76.5C 232.719,73.7765 231.052,70.9432 229.5,68C 230.635,67.2506 231.635,67.4173 232.5,68.5C 234.167,71.1667 235.833,73.8333 237.5,76.5C 237.043,77.2975 236.376,77.6309 235.5,77.5 Z"/></g>
<g><path style="opacity:1" fill="#e8eef4" d="M 229.5,76.5 C 228.223,73.4475 226.556,70.6141 224.5,68C 225.635,67.2506 226.635,67.4173 227.5,68.5C 228.803,70.9676 230.303,73.301 232,75.5C 232.207,77.7615 231.374,78.0948 229.5,76.5 Z"/></g>
<g><path style="opacity:1" fill="#e0e2f0" d="M 239.5,71.5 C 241.436,73.2432 241.77,75.2432 240.5,77.5C 239.893,77.3764 239.56,77.0431 239.5,76.5C 237.86,73.8508 236.193,71.1841 234.5,68.5C 235,68.1667 235.5,67.8333 236,67.5C 237.412,68.6856 238.579,70.019 239.5,71.5 Z"/></g>
<g><path style="opacity:1" fill="#e0e5f3" d="M 334.5,66.5 C 335.496,66.4142 336.329,66.7476 337,67.5C 338.635,70.6319 340.468,73.6319 342.5,76.5C 341.132,77.5937 339.965,77.2603 339,75.5C 337.239,72.5889 335.739,69.5889 334.5,66.5 Z"/></g>
<g><path style="opacity:1" fill="#dfe2f0" d="M 339.5,66.5 C 340.496,66.4142 341.329,66.7476 342,67.5C 343.635,70.6319 345.468,73.6319 347.5,76.5C 346.5,77.8333 345.5,77.8333 344.5,76.5C 342.728,73.1064 341.061,69.7731 339.5,66.5 Z"/></g>
<g><path style="opacity:1" fill="#e2e4f3" d="M 344.5,66.5 C 348.637,68.4913 350.471,71.8246 350,76.5C 347.381,73.594 345.547,70.2607 344.5,66.5 Z"/></g>
<g><path style="opacity:1" fill="#e8e9f7" d="M 425.5,67.5 C 428.076,69.7772 430.076,72.6105 431.5,76C 431.167,76.5 430.833,77 430.5,77.5C 427.919,74.5961 426.252,71.2628 425.5,67.5 Z"/></g>
<g><path style="opacity:1" fill="#e7ecf3" d="M 434.5,66.5 C 435.496,66.4142 436.329,66.7476 437,67.5C 440.455,74.2471 444.289,80.7471 448.5,87C 446.406,87.4453 444.906,86.612 444,84.5C 440.533,78.5618 437.366,72.5618 434.5,66.5 Z"/></g>
<g><path style="opacity:1" fill="#e7eaf5" d="M 92.5,67.5 C 93.5294,69.5168 94.5294,71.5168 95.5,73.5C 95.6495,74.552 95.4828,75.552 95,76.5C 93.2467,73.9952 91.7467,71.3286 90.5,68.5C 90.9569,67.7025 91.6236,67.3691 92.5,67.5 Z"/></g>
<g><path style="opacity:1" fill="#e1e5f0" d="M 377.5,73.5 C 376.766,72.2921 376.433,70.9587 376.5,69.5C 376.81,68.2617 377.31,68.2617 378,69.5C 380,72.8333 382,76.1667 384,79.5C 384.667,80.8333 384.667,82.1667 384,83.5C 381.97,79.9915 379.804,76.6581 377.5,73.5 Z"/></g>
<g><path style="opacity:1" fill="#e4e7f3" d="M 421.5,69.5 C 423.868,71.8428 426.035,74.5095 428,77.5C 428.667,78.8333 428.667,80.1667 428,81.5C 425.026,77.8816 422.859,73.8816 421.5,69.5 Z"/></g>
<g><path style="opacity:1" fill="#e5e9f5" d="M 222.5,67.5 C 223.709,70.7206 225.376,73.7206 227.5,76.5C 226.575,77.5624 225.575,77.5624 224.5,76.5C 223.216,73.4312 221.55,70.5979 219.5,68C 220.176,66.3167 221.176,66.1501 222.5,67.5 Z"/></g>
<g><path style="opacity:1" fill="#dfe3f2" d="M 159.5,66.5 C 161.017,66.5106 162.184,67.1772 163,68.5C 165.333,72.5 167.667,76.5 170,80.5C 170.667,82.1667 170.667,83.8333 170,85.5C 166.476,79.1124 162.976,72.779 159.5,66.5 Z"/></g>
<g><path style="opacity:1" fill="#e3e9f1" d="M 324.5,68.5 C 325.542,67.2089 326.708,67.2089 328,68.5C 329.3,71.2947 330.8,73.9613 332.5,76.5C 332.167,76.8333 331.833,77.1667 331.5,77.5C 328.916,74.6508 326.583,71.6508 324.5,68.5 Z"/></g>
<g><path style="opacity:1" fill="#e7e9f1" d="M 172.5,95.5 C 172.19,96.7383 171.69,96.7383 171,95.5C 166.807,88.4367 162.641,81.4367 158.5,74.5C 156.891,72.3985 156.391,70.0652 157,67.5C 162.972,76.448 168.138,85.7813 172.5,95.5 Z"/></g>
<g><path style="opacity:1" fill="#e3e8f3" d="M 321.5,67.5 C 324.973,71.7571 327.973,76.4238 330.5,81.5C 330.649,82.552 330.483,83.552 330,84.5C 326.5,79 323,73.5 319.5,68C 320.094,67.5357 320.761,67.369 321.5,67.5 Z"/></g>
<g><path style="opacity:1" fill="#e1e8f4" d="M 283.5,71.5 C 286.909,75.3054 289.575,79.6388 291.5,84.5C 291.518,86.3726 291.018,86.7059 290,85.5C 287.807,81.7701 285.64,78.1035 283.5,74.5C 283.5,73.5 283.5,72.5 283.5,71.5 Z"/></g>
<g><path style="opacity:1" fill="#e5e9f3" d="M 439.5,67.5 C 441.017,67.5106 442.184,68.1772 443,69.5C 445,72.8333 447,76.1667 449,79.5C 450.301,81.3646 450.635,83.3646 450,85.5C 446.224,79.609 442.724,73.609 439.5,67.5 Z"/></g>
<g><path style="opacity:1" fill="#e5e8f5" d="M 184.5,72.5 C 187.309,76.7683 190.143,81.1016 193,85.5C 193.749,86.635 193.583,87.635 192.5,88.5C 188.738,83.6435 186.072,78.3102 184.5,72.5 Z"/></g>
<g><path style="opacity:1" fill="#e5e7f3" d="M 384.5,66.5 C 385.496,66.4142 386.329,66.7476 387,67.5C 389.748,72.6657 392.748,77.6657 396,82.5C 397.301,84.3646 397.635,86.3646 397,88.5C 392.133,81.4906 387.967,74.1573 384.5,66.5 Z"/></g>
<g><path style="opacity:1" fill="#e6eaf3" d="M 466.5,67.5 C 470.948,74.0617 474.615,81.0617 477.5,88.5C 472.86,82.5744 468.693,76.2411 465,69.5C 464.472,68.184 464.972,67.5173 466.5,67.5 Z"/></g>
<g><path style="opacity:1" fill="#e4e7f2" d="M 128.5,70.5 C 132.559,76.2659 136.392,82.2659 140,88.5C 140.667,90.1667 140.667,91.8333 140,93.5C 137.252,88.3343 134.252,83.3343 131,78.5C 129.293,76.0912 128.46,73.4245 128.5,70.5 Z"/></g>
<g><path style="opacity:1" fill="#3c3a94" d="M 321.5,67.5 C 320.761,67.369 320.094,67.5357 319.5,68C 323,73.5 326.5,79 330,84.5C 330.483,83.552 330.649,82.552 330.5,81.5C 331.657,84.0259 331.657,86.6926 330.5,89.5C 326.441,83.7341 322.608,77.7341 319,71.5C 318.833,72.1667 318.667,72.8333 318.5,73.5C 322.007,80.5238 326.007,87.1904 330.5,93.5C 330.167,94.1667 329.833,94.8333 329.5,95.5C 325.775,90.4029 322.275,85.0696 319,79.5C 318.833,80.1667 318.667,80.8333 318.5,81.5C 323.175,90.1838 327.841,98.8504 332.5,107.5C 331.833,108.167 331.167,108.833 330.5,109.5C 327.5,101.838 323.667,94.5047 319,87.5C 318.833,88.1667 318.667,88.8333 318.5,89.5C 321.752,97.0139 325.752,104.014 330.5,110.5C 330.167,111.167 329.833,111.833 329.5,112.5C 325.524,107.232 322.024,101.566 319,95.5C 318.506,97.1341 318.34,98.8008 318.5,100.5C 317.265,100.721 316.265,101.388 315.5,102.5C 314.779,100.314 314.113,98.1474 313.5,96C 313.719,91.2287 313.719,86.3954 313.5,81.5C 314.107,76.8088 314.774,72.1422 315.5,67.5C 317.636,66.2072 319.636,66.2072 321.5,67.5 Z"/></g>
<g><path style="opacity:1" fill="#e6eaf4" d="M 488.5,71.5 C 492.052,75.5999 494.219,80.2666 495,85.5C 491.473,81.4463 489.306,76.7796 488.5,71.5 Z"/></g>
<g><path style="opacity:1" fill="#e7ebf4" d="M 221.5,92.5 C 221.649,93.552 221.483,94.552 221,95.5C 217.976,89.4343 214.476,83.7676 210.5,78.5C 210.343,77.1266 210.51,75.7932 211,74.5C 214.776,80.391 218.276,86.391 221.5,92.5 Z"/></g>
<g><path style="opacity:1" fill="#e7eaf2" d="M 282.5,81.5 C 282.5,81.1667 282.5,80.8333 282.5,80.5C 282.351,79.448 282.517,78.448 283,77.5C 285.438,81.3773 287.605,85.3773 289.5,89.5C 289.518,91.3726 289.018,91.7059 288,90.5C 286.303,87.3283 284.47,84.3283 282.5,81.5 Z"/></g>
<g><path style="opacity:1" fill="#e3e7f3" d="M 330.5,89.5 C 330.5,90.8333 330.5,92.1667 330.5,93.5C 326.007,87.1904 322.007,80.5238 318.5,73.5C 318.667,72.8333 318.833,72.1667 319,71.5C 322.608,77.7341 326.441,83.7341 330.5,89.5 Z"/></g>
<g><path style="opacity:1" fill="#e7e9f0" d="M 376.5,74.5 C 378.722,79.1115 381.055,83.6115 383.5,88C 383.333,88.8333 383.167,89.6667 383,90.5C 380.822,86.8057 378.655,83.1391 376.5,79.5C 375.28,77.7163 375.28,76.0496 376.5,74.5 Z"/></g>
<g><path style="opacity:1" fill="#ebecf3" d="M 439.5,81.5 C 440.97,83.1513 442.303,84.9847 443.5,87C 440.194,86.9595 438.861,85.1262 439.5,81.5 Z"/></g>
<g><path style="opacity:1" fill="#48449a" d="M 210.5,78.5 C 214.476,83.7676 217.976,89.4343 221,95.5C 221.483,94.552 221.649,93.552 221.5,92.5C 222.451,93.9187 222.784,95.5853 222.5,97.5C 225.385,97.1936 228.052,97.5269 230.5,98.5C 232.284,97.2801 233.95,97.2801 235.5,98.5C 234.624,98.3691 233.957,98.7025 233.5,99.5C 234.467,101.63 235.634,103.63 237,105.5C 237.483,104.552 237.649,103.552 237.5,102.5C 238.339,103.641 239.006,104.974 239.5,106.5C 238.147,107.524 237.48,108.857 237.5,110.5C 236.07,110.579 234.736,110.246 233.5,109.5C 231.97,111.762 230.637,111.428 229.5,108.5C 230.239,108.631 230.906,108.464 231.5,108C 229.521,104.528 227.188,101.362 224.5,98.5C 224.167,98.8333 223.833,99.1667 223.5,99.5C 225.432,102.366 227.099,105.366 228.5,108.5C 228.369,112.49 227.035,112.49 224.5,108.5C 225.043,108.44 225.376,108.107 225.5,107.5C 221.232,99.2406 216.566,91.2406 211.5,83.5C 210.374,84.8084 210.374,86.1417 211.5,87.5C 209.689,87.428 208.356,86.5947 207.5,85C 208.03,82.5568 209.03,80.3901 210.5,78.5 Z"/></g>
<g><path style="opacity:1" fill="#454196" d="M 287.5,67.5 C 286.503,67.4701 285.836,67.9701 285.5,69C 287.284,72.735 289.451,76.235 292,79.5C 292.483,78.552 292.649,77.552 292.5,76.5C 293.139,77.0968 293.472,77.9302 293.5,79C 292.854,82.8125 292.354,86.6458 292,90.5C 290.401,93.8548 288.901,97.1882 287.5,100.5C 285.265,97.7089 283.265,94.7089 281.5,91.5C 282.338,91.1583 282.672,90.4916 282.5,89.5C 284.308,92.4362 286.141,95.4362 288,98.5C 287.689,93.2001 285.689,88.5334 282,84.5C 281.517,85.448 281.351,86.448 281.5,87.5C 280.157,85.3166 280.49,83.3166 282.5,81.5C 284.47,84.3283 286.303,87.3283 288,90.5C 289.018,91.7059 289.518,91.3726 289.5,89.5C 287.605,85.3773 285.438,81.3773 283,77.5C 282.517,78.448 282.351,79.448 282.5,80.5C 281.861,79.9032 281.528,79.0698 281.5,78C 281.873,76.4498 282.54,75.2832 283.5,74.5C 285.64,78.1035 287.807,81.7701 290,85.5C 291.018,86.7059 291.518,86.3726 291.5,84.5C 289.575,79.6388 286.909,75.3054 283.5,71.5C 282.229,67.4758 283.563,66.1425 287.5,67.5 Z"/></g>
<g><path style="opacity:1" fill="#e7eaf3" d="M 416.5,77.5 C 417.376,77.3691 418.043,77.7025 418.5,78.5C 428.468,95.6309 438.634,112.631 449,129.5C 449.749,130.635 449.583,131.635 448.5,132.5C 438.9,116.39 429.066,100.39 419,84.5C 417.589,82.3496 416.755,80.0163 416.5,77.5 Z"/></g>
<g><path style="opacity:1" fill="#e3e6f0" d="M 485.5,83.5 C 489.409,87.3172 491.742,91.9838 492.5,97.5C 488.591,93.6828 486.258,89.0162 485.5,83.5 Z"/></g>
<g><path style="opacity:1" fill="#d9ddee" d="M 486.5,77.5 C 489.202,80.5181 491.702,83.8514 494,87.5C 494.781,88.9437 494.614,90.277 493.5,91.5C 490.252,87.263 487.919,82.5963 486.5,77.5 Z"/></g>
<g><path style="opacity:1" fill="#e9ebf5" d="M 85.5,86.5 C 85.4431,85.391 85.1098,84.391 84.5,83.5C 84.3505,82.448 84.5172,81.448 85,80.5C 88.5855,86.0021 91.9188,91.6688 95,97.5C 95.6667,98.8333 95.6667,100.167 95,101.5C 91.9703,96.3263 88.8036,91.3263 85.5,86.5 Z"/></g>
<g><path style="opacity:1" fill="#e5e8f1" d="M 84.5,76.5 C 84.5,75.8333 84.5,75.1667 84.5,74.5C 84.369,73.7611 84.5357,73.0944 85,72.5C 89.1361,78.1344 92.6361,84.1344 95.5,90.5C 95.3333,91.1667 95.1667,91.8333 95,92.5C 91.637,86.9909 88.137,81.6576 84.5,76.5 Z"/></g>
<g><path style="opacity:1" fill="#e4e6f1" d="M 192.5,95.5 C 189.034,91.9261 186.034,87.9261 183.5,83.5C 183.343,82.1266 183.51,80.7932 184,79.5C 187.643,84.4545 190.476,89.7878 192.5,95.5 Z"/></g>
<g><path style="opacity:1" fill="#e4e7f2" d="M 382.5,97.5 C 379.833,93.5 377.167,89.5 374.5,85.5C 374.343,84.1266 374.51,82.7932 375,81.5C 378.886,86.2676 381.386,91.601 382.5,97.5 Z"/></g>
<g><path style="opacity:1" fill="#e6e9f3" d="M 381.5,67.5 C 386.804,75.6609 391.97,83.9942 397,92.5C 398.707,94.9088 399.54,97.5755 399.5,100.5C 392.733,89.8142 386.067,78.9809 379.5,68C 380.094,67.5357 380.761,67.369 381.5,67.5 Z"/></g>
<g><path style="opacity:1" fill="#3f3d95" d="M 381.5,67.5 C 380.761,67.369 380.094,67.5357 379.5,68C 386.067,78.9809 392.733,89.8142 399.5,100.5C 400.043,100.56 400.376,100.893 400.5,101.5C 399.8,101.787 399.133,102.12 398.5,102.5C 394.357,96.2318 390.19,89.8985 386,83.5C 385.833,84 385.667,84.5 385.5,85C 390.026,94.5557 395.193,103.722 401,112.5C 401.609,109.935 401.109,107.601 399.5,105.5C 400.75,105.577 401.583,106.244 402,107.5C 401.98,111.762 403.147,115.595 405.5,119C 404.901,120.622 404.234,122.122 403.5,123.5C 403.313,121.436 402.813,119.436 402,117.5C 397.082,110 392.416,102.333 388,94.5C 387.391,97.0652 387.891,99.3985 389.5,101.5C 388.167,101.5 386.833,101.5 385.5,101.5C 387.243,97.8126 386.743,94.4792 384,91.5C 383.349,93.235 383.515,94.9017 384.5,96.5C 384.043,97.2975 383.376,97.6309 382.5,97.5C 381.386,91.601 378.886,86.2676 375,81.5C 374.51,82.7932 374.343,84.1266 374.5,85.5C 373.698,84.0484 373.198,82.3817 373,80.5C 371.212,82.3326 371.046,84.3326 372.5,86.5C 371.512,89.4501 370.679,92.4501 370,95.5C 367.98,92.6483 368.146,89.9816 370.5,87.5C 368.687,84.0825 369.354,81.4159 372.5,79.5C 373.98,80.4324 375.313,80.4324 376.5,79.5C 378.655,83.1391 380.822,86.8057 383,90.5C 383.167,89.6667 383.333,88.8333 383.5,88C 381.055,83.6115 378.722,79.1115 376.5,74.5C 376.5,73.8333 376.833,73.5 377.5,73.5C 379.804,76.6581 381.97,79.9915 384,83.5C 384.667,82.1667 384.667,80.8333 384,79.5C 382,76.1667 380,72.8333 378,69.5C 377.31,68.2617 376.81,68.2617 376.5,69.5C 375.308,68.4341 375.641,67.6008 377.5,67C 379.066,66.235 380.399,66.4017 381.5,67.5 Z"/></g>
<g><path style="opacity:1" fill="#e7ebf5" d="M 329.5,95.5 C 331.176,100.016 333.51,104.182 336.5,108C 335.072,108.579 333.738,108.412 332.5,107.5C 327.841,98.8504 323.175,90.1838 318.5,81.5C 318.667,80.8333 318.833,80.1667 319,79.5C 322.275,85.0696 325.775,90.4029 329.5,95.5 Z"/></g>
<g><path style="opacity:1" fill="#e8ebf4" d="M 282.5,89.5 C 282.167,88.8333 281.833,88.1667 281.5,87.5C 281.351,86.448 281.517,85.448 282,84.5C 285.689,88.5334 287.689,93.2001 288,98.5C 286.141,95.4362 284.308,92.4362 282.5,89.5 Z"/></g>
<g><path style="opacity:1" fill="#e4e8f4" d="M 330.5,109.5 C 330.5,109.833 330.5,110.167 330.5,110.5C 325.752,104.014 321.752,97.0139 318.5,89.5C 318.667,88.8333 318.833,88.1667 319,87.5C 323.667,94.5047 327.5,101.838 330.5,109.5 Z"/></g>
<g><path style="opacity:1" fill="#e2e4f1" d="M 175.5,115.5 C 175.649,116.552 175.483,117.552 175,118.5C 170.642,110.432 165.809,102.765 160.5,95.5C 159.833,93.1806 159.666,90.8473 160,88.5C 165.178,97.5274 170.345,106.527 175.5,115.5 Z"/></g>
<g><path style="opacity:1" fill="#e5e9f3" d="M 173.5,102.5 C 173.657,103.873 173.49,105.207 173,106.5C 168.142,98.769 163.309,91.1023 158.5,83.5C 158.343,82.1266 158.51,80.7932 159,79.5C 163.858,87.231 168.691,94.8977 173.5,102.5 Z"/></g>
<g><path style="opacity:1" fill="#e3e5f0" d="M 281.5,91.5 C 283.265,94.7089 285.265,97.7089 287.5,100.5C 287.657,101.873 287.49,103.207 287,104.5C 283.249,100.007 280.916,95.0071 280,89.5C 280.717,90.0442 281.217,90.7109 281.5,91.5 Z"/></g>
<g><path style="opacity:1" fill="#e3e5f1" d="M 373.5,87.5 C 376.225,91.2676 378.725,95.2676 381,99.5C 381.667,100.833 381.667,102.167 381,103.5C 377.114,98.7324 374.614,93.399 373.5,87.5 Z"/></g>
<g><path style="opacity:1" fill="#dfe1f0" d="M 398.5,102.5 C 398.557,103.609 398.89,104.609 399.5,105.5C 401.109,107.601 401.609,109.935 401,112.5C 395.193,103.722 390.026,94.5557 385.5,85C 385.667,84.5 385.833,84 386,83.5C 390.19,89.8985 394.357,96.2318 398.5,102.5 Z"/></g>
<g><path style="opacity:1" fill="#e1e6f1" d="M 128.5,78.5 C 131.642,83.4356 134.809,88.4356 138,93.5C 139.885,95.9141 140.552,98.5808 140,101.5C 136.333,95.5 132.667,89.5 129,83.5C 128.506,81.8659 128.34,80.1992 128.5,78.5 Z"/></g>
<g><path style="opacity:1" fill="#e1e3f1" d="M 418.5,72.5 C 419.376,72.3691 420.043,72.7025 420.5,73.5C 429.817,90.1327 439.651,106.466 450,122.5C 450.667,124.167 450.667,125.833 450,127.5C 440.333,111.5 430.667,95.5 421,79.5C 419.589,77.3496 418.755,75.0163 418.5,72.5 Z"/></g>
<g><path style="opacity:1" fill="#484499" d="M 466.5,67.5 C 464.972,67.5173 464.472,68.184 465,69.5C 468.693,76.2411 472.86,82.5744 477.5,88.5C 478.482,90.4061 479.482,92.4061 480.5,94.5C 480.833,94.3333 481.167,94.1667 481.5,94C 482.282,91.2595 482.782,88.4262 483,85.5C 483.417,84.244 484.25,83.5774 485.5,83.5C 486.258,89.0162 488.591,93.6828 492.5,97.5C 492.05,100.128 491.05,102.461 489.5,104.5C 487.355,101.567 485.188,98.5672 483,95.5C 482.833,96.1667 482.667,96.8333 482.5,97.5C 483.758,100.6 485.258,103.6 487,106.5C 487.671,107.252 488.504,107.586 489.5,107.5C 489.5,108.833 488.833,109.5 487.5,109.5C 478.804,96.1193 470.471,82.4526 462.5,68.5C 463.156,67.7222 463.989,67.0556 465,66.5C 465.765,66.5699 466.265,66.9033 466.5,67.5 Z"/></g>
<g><path style="opacity:1" fill="#dee5f4" d="M 483.5,88.5 C 487.566,92.2976 489.732,96.9642 490,102.5C 486.987,98.1446 484.82,93.4779 483.5,88.5 Z"/></g>
<g><path style="opacity:1" fill="#3f3d95" d="M 158.5,74.5 C 162.641,81.4367 166.807,88.4367 171,95.5C 171.69,96.7383 172.19,96.7383 172.5,95.5C 173.222,95.9175 173.722,96.5842 174,97.5C 176.069,93.8127 178.236,90.1461 180.5,86.5C 180.957,85.7025 181.624,85.3691 182.5,85.5C 182.833,84.8333 183.167,84.1667 183.5,83.5C 186.034,87.9261 189.034,91.9261 192.5,95.5C 192.66,99.2364 193.493,99.2364 195,95.5C 195.167,96 195.333,96.5 195.5,97C 194.385,98.3932 193.885,99.8932 194,101.5C 195.887,99.9739 196.887,97.9739 197,95.5C 197.75,96.1258 198.584,96.6258 199.5,97C 196.972,98.0174 196.972,99.1841 199.5,100.5C 198.412,104.386 197.579,104.386 197,100.5C 196.085,101.328 195.419,102.328 195,103.5C 194.333,102.167 193.667,102.167 193,103.5C 192.667,102.5 192.333,101.5 192,100.5C 191.562,102.642 190.728,103.975 189.5,104.5C 186.775,100.732 184.275,96.7324 182,92.5C 181.833,93.1667 181.667,93.8333 181.5,94.5C 183.728,99.2888 186.228,103.955 189,108.5C 189.483,107.552 189.649,106.552 189.5,105.5C 190.765,107.357 190.432,109.024 188.5,110.5C 185.863,107.011 183.363,103.345 181,99.5C 180.51,100.793 180.343,102.127 180.5,103.5C 178.321,100.652 178.321,97.819 180.5,95C 180.333,94.1667 180.167,93.3333 180,92.5C 177.228,95.4386 175.062,98.7719 173.5,102.5C 168.691,94.8977 163.858,87.231 159,79.5C 158.51,80.7932 158.343,82.1266 158.5,83.5C 157.319,80.6377 157.319,77.6377 158.5,74.5 Z"/></g>
<g><path style="opacity:1" fill="#e8eaf2" d="M 182.5,85.5 C 185.225,89.2676 187.725,93.2676 190,97.5C 190.667,98.8333 190.667,100.167 190,101.5C 186.114,96.7324 183.614,91.399 182.5,85.5 Z"/></g>
<g><path style="opacity:1" fill="#e3e5f1" d="M 416.5,85.5 C 421.531,92.522 426.364,99.8553 431,107.5C 431.688,108.332 431.521,108.998 430.5,109.5C 424.293,102.421 419.626,94.4212 416.5,85.5 Z"/></g>
<g><path style="opacity:1" fill="#e7ebf4" d="M 84.5,101.5 C 84.5,100.833 84.5,100.167 84.5,99.5C 84.3932,97.6214 84.8932,97.2881 86,98.5C 89.1832,104.204 92.3498,109.871 95.5,115.5C 95.5177,117.373 95.0177,117.706 94,116.5C 90.9703,111.326 87.8036,106.326 84.5,101.5 Z"/></g>
<g><path style="opacity:1" fill="#e9ebf7" d="M 189.5,104.5 C 189.5,104.833 189.5,105.167 189.5,105.5C 189.649,106.552 189.483,107.552 189,108.5C 186.228,103.955 183.728,99.2888 181.5,94.5C 181.667,93.8333 181.833,93.1667 182,92.5C 184.275,96.7324 186.775,100.732 189.5,104.5 Z"/></g>
<g><path style="opacity:1" fill="#c8cbe9" d="M 343.5,98.5 C 344.5,98.5 345.5,98.5 346.5,98.5C 346.451,104.831 345.451,104.831 343.5,98.5 Z"/></g>
<g><path style="opacity:1" fill="#e0e4f1" d="M 489.5,104.5 C 489.5,105.5 489.5,106.5 489.5,107.5C 488.504,107.586 487.671,107.252 487,106.5C 485.258,103.6 483.758,100.6 482.5,97.5C 482.667,96.8333 482.833,96.1667 483,95.5C 485.188,98.5672 487.355,101.567 489.5,104.5 Z"/></g>
<g><path style="opacity:1" fill="#e9eff5" d="M 235.5,98.5 C 236.167,99.8333 236.833,101.167 237.5,102.5C 237.649,103.552 237.483,104.552 237,105.5C 235.634,103.63 234.467,101.63 233.5,99.5C 233.957,98.7025 234.624,98.3691 235.5,98.5 Z"/></g>
<g><path style="opacity:1" fill="#e3e6f1" d="M 338.5,98.5 C 340.017,98.5106 341.184,99.1772 342,100.5C 342.748,102.332 343.748,103.999 345,105.5C 345.749,106.635 345.583,107.635 344.5,108.5C 341.989,105.478 339.989,102.145 338.5,98.5 Z"/></g>
<g><path style="opacity:1" fill="#e1e8f3" d="M 380.5,107.5 C 380.649,108.552 380.483,109.552 380,110.5C 377.488,106.139 374.988,101.806 372.5,97.5C 372.351,96.448 372.517,95.448 373,94.5C 375.512,98.8608 378.012,103.194 380.5,107.5 Z"/></g>
<g><path style="opacity:1" fill="#e2e6f0" d="M 128.5,87.5 C 132.225,92.5971 135.725,97.9304 139,103.5C 140.301,105.365 140.635,107.365 140,109.5C 134.823,102.81 130.989,95.4769 128.5,87.5 Z"/></g>
<g><path style="opacity:1" fill="#e6e9f3" d="M 221.5,116.5 C 221.5,116.833 221.5,117.167 221.5,117.5C 221.649,118.552 221.483,119.552 221,120.5C 217.261,114.271 213.761,107.937 210.5,101.5C 210.482,99.6274 210.982,99.2941 212,100.5C 214.941,106.062 218.108,111.395 221.5,116.5 Z"/></g>
<g><path style="opacity:1" fill="#e6e9f3" d="M 224.5,108.5 C 224.167,108.5 223.833,108.5 223.5,108.5C 219.988,101.466 215.988,94.7994 211.5,88.5C 211.5,88.1667 211.5,87.8333 211.5,87.5C 210.374,86.1417 210.374,84.8084 211.5,83.5C 216.566,91.2406 221.232,99.2406 225.5,107.5C 225.376,108.107 225.043,108.44 224.5,108.5 Z"/></g>
<g><path style="opacity:1" fill="#e1e7ef" d="M 229.5,108.5 C 229.167,108.5 228.833,108.5 228.5,108.5C 227.099,105.366 225.432,102.366 223.5,99.5C 223.833,99.1667 224.167,98.8333 224.5,98.5C 227.188,101.362 229.521,104.528 231.5,108C 230.906,108.464 230.239,108.631 229.5,108.5 Z"/></g>
<g><path style="opacity:1" fill="#e8eef5" d="M 333.5,98.5 C 334.496,98.4142 335.329,98.7476 336,99.5C 337.709,102.418 339.542,105.252 341.5,108C 340.365,108.749 339.365,108.583 338.5,107.5C 336.555,104.607 334.889,101.607 333.5,98.5 Z"/></g>
<g><path style="opacity:1" fill="#e6eaf3" d="M 94.5,103.5 C 94.5569,104.609 94.8902,105.609 95.5,106.5C 95.6495,107.552 95.4828,108.552 95,109.5C 91.7249,103.93 88.2249,98.5971 84.5,93.5C 84.5,92.8333 84.5,92.1667 84.5,91.5C 84.7748,89.1582 85.6081,89.1582 87,91.5C 88.9675,95.9392 91.4675,99.9392 94.5,103.5 Z"/></g>
<g><path style="opacity:1" fill="#e0e5f2" d="M 128.5,95.5 C 132.559,101.266 136.392,107.266 140,113.5C 140.667,115.167 140.667,116.833 140,118.5C 137.584,113.999 134.917,109.666 132,105.5C 129.965,102.439 128.799,99.1055 128.5,95.5 Z"/></g>
<g><path style="opacity:1" fill="#dee3f0" d="M 278.5,95.5 C 281.225,99.2676 283.725,103.268 286,107.5C 286.667,108.833 286.667,110.167 286,111.5C 282.114,106.732 279.614,101.399 278.5,95.5 Z"/></g>
<g><path style="opacity:1" fill="#e7eaf4" d="M 329.5,112.5 C 330.323,114.455 330.49,116.455 330,118.5C 326.392,112.266 322.559,106.266 318.5,100.5C 318.34,98.8008 318.506,97.1341 319,95.5C 322.024,101.566 325.524,107.232 329.5,112.5 Z"/></g>
<g><path style="opacity:1" fill="#e7eaf3" d="M 462.5,68.5 C 470.471,82.4526 478.804,96.1193 487.5,109.5C 487.657,110.873 487.49,112.207 487,113.5C 477.782,98.8984 468.949,84.065 460.5,69C 461.031,67.282 461.698,67.1153 462.5,68.5 Z"/></g>
<g><path style="opacity:1" fill="#444296" d="M 161.5,103.5 C 168.736,115.631 175.736,127.964 182.5,140.5C 181.039,141.686 179.705,141.686 178.5,140.5C 179.239,140.631 179.906,140.464 180.5,140C 175.126,130.75 169.626,121.584 164,112.5C 163.333,113.833 163.333,115.167 164,116.5C 168.777,124.393 173.277,132.393 177.5,140.5C 176.406,142.836 175.073,142.836 173.5,140.5C 174.239,140.631 174.906,140.464 175.5,140C 172.459,134.75 169.292,129.583 166,124.5C 165.51,126.545 165.677,128.545 166.5,130.5C 165.001,129.322 164.001,127.655 163.5,125.5C 162.808,126.025 162.308,126.692 162,127.5C 161.833,127 161.667,126.5 161.5,126C 163.998,123.518 163.998,121.185 161.5,119C 161.113,113.893 161.113,108.726 161.5,103.5 Z"/></g>
<g><path style="opacity:1" fill="#e7eaf4" d="M 211.5,96.5 C 210.89,95.609 210.557,94.609 210.5,93.5C 210.393,91.6214 210.893,91.2881 212,92.5C 214.748,97.6657 217.748,102.666 221,107.5C 221.667,108.833 221.667,110.167 221,111.5C 217.809,106.436 214.642,101.436 211.5,96.5 Z"/></g>
<g><path style="opacity:1" fill="#e5ebf2" d="M 230.5,98.5 C 231.989,100.805 233.489,103.138 235,105.5C 235.749,106.635 235.583,107.635 234.5,108.5C 232.265,105.709 230.265,102.709 228.5,99.5C 228.957,98.7025 229.624,98.3691 230.5,98.5 Z"/></g>
<g><path style="opacity:1" fill="#cbd0e4" d="M 440.5,104.5 C 440.897,103.475 441.563,103.308 442.5,104C 444.333,106.5 446.167,109 448,111.5C 449.513,114.024 450.18,116.691 450,119.5C 447.308,114.097 444.142,109.097 440.5,104.5 Z"/></g>
<g><path style="opacity:1" fill="#e3e6f2" d="M 463.5,79.5 C 470.974,91.7696 478.474,104.103 486,116.5C 486.667,117.833 486.667,119.167 486,120.5C 479.416,110.334 473.082,100 467,89.5C 465.54,86.2522 464.374,82.9188 463.5,79.5 Z"/></g>
<g><path style="opacity:1" fill="#daddef" d="M 188.5,110.5 C 189.323,112.455 189.49,114.455 189,116.5C 186.143,112.102 183.309,107.768 180.5,103.5C 180.343,102.127 180.51,100.793 181,99.5C 183.363,103.345 185.863,107.011 188.5,110.5 Z"/></g>
<g><path style="opacity:1" fill="#eaedf6" d="M 277.5,103.5 C 281.566,107.298 283.732,111.964 284,117.5C 280.987,113.145 278.82,108.478 277.5,103.5 Z"/></g>
<g><path style="opacity:1" fill="#4b489b" d="M 211.5,88.5 C 215.988,94.7994 219.988,101.466 223.5,108.5C 222.469,110.961 221.802,113.627 221.5,116.5C 218.108,111.395 214.941,106.062 212,100.5C 210.982,99.2941 210.482,99.6274 210.5,101.5C 213.761,107.937 217.261,114.271 221,120.5C 221.483,119.552 221.649,118.552 221.5,117.5C 222.613,118.946 222.78,120.613 222,122.5C 221.31,121.262 220.81,121.262 220.5,122.5C 217.468,118.939 214.968,114.939 213,110.5C 211.608,108.158 210.775,108.158 210.5,110.5C 208.182,106.414 208.015,102.081 210,97.5C 211.107,98.7119 211.607,98.3786 211.5,96.5C 214.642,101.436 217.809,106.436 221,111.5C 221.667,110.167 221.667,108.833 221,107.5C 217.748,102.666 214.748,97.6657 212,92.5C 210.893,91.2881 210.393,91.6214 210.5,93.5C 209.235,91.6431 209.568,89.9764 211.5,88.5 Z"/></g>
<g><path style="opacity:1" fill="#e6eaf5" d="M 371.5,101.5 C 375.767,106.035 378.434,111.368 379.5,117.5C 375.769,112.705 373.102,107.372 371.5,101.5 Z"/></g>
<g><path style="opacity:1" fill="#dfe3f1" d="M 318.5,103.5 C 322.308,109.77 326.141,116.103 330,122.5C 330.667,124.167 330.667,125.833 330,127.5C 326.333,121.167 322.667,114.833 319,108.5C 318.506,106.866 318.34,105.199 318.5,103.5 Z"/></g>
<g><path style="opacity:1" fill="#e2e4f1" d="M 403.5,123.5 C 403.5,124.167 403.167,124.5 402.5,124.5C 398.749,117.329 394.749,110.329 390.5,103.5C 390.167,102.833 389.833,102.167 389.5,101.5C 387.891,99.3985 387.391,97.0652 388,94.5C 392.416,102.333 397.082,110 402,117.5C 402.813,119.436 403.313,121.436 403.5,123.5 Z"/></g>
<g><path style="opacity:1" fill="#434299" d="M 84.5,93.5 C 88.2249,98.5971 91.7249,103.93 95,109.5C 95.4828,108.552 95.6495,107.552 95.5,106.5C 96.1003,110.341 97.4336,114.007 99.5,117.5C 99.1822,118.647 98.5156,119.481 97.5,120C 97.9089,122.947 98.9089,125.614 100.5,128C 98.2091,128.225 96.2091,128.392 94.5,128.5C 91.2744,125.07 88.7744,121.07 87,116.5C 85.6081,114.158 84.7748,114.158 84.5,116.5C 83.3871,115.054 83.2204,113.387 84,111.5C 84.69,112.738 85.19,112.738 85.5,111.5C 89.1417,116.097 92.3084,121.097 95,126.5C 95.6667,125.167 95.6667,123.833 95,122.5C 91.9188,116.669 88.5855,111.002 85,105.5C 84.5172,106.448 84.3505,107.448 84.5,108.5C 83.3773,106.312 83.3773,103.979 84.5,101.5C 87.8036,106.326 90.9703,111.326 94,116.5C 95.0177,117.706 95.5177,117.373 95.5,115.5C 92.3498,109.871 89.1832,104.204 86,98.5C 84.8932,97.2881 84.3932,97.6214 84.5,99.5C 83.2584,97.6112 83.2584,95.6112 84.5,93.5 Z"/></g>
<g><path style="opacity:1" fill="#e8ecf4" d="M 179.5,106.5 C 182.135,109.079 184.301,112.079 186,115.5C 187.301,117.365 187.635,119.365 187,121.5C 183.405,116.977 180.905,111.977 179.5,106.5 Z"/></g>
<g><path style="opacity:1" fill="#424097" d="M 372.5,97.5 C 374.988,101.806 377.488,106.139 380,110.5C 380.483,109.552 380.649,108.552 380.5,107.5C 381.735,109.017 381.735,110.684 380.5,112.5C 380.833,112.833 381.167,113.167 381.5,113.5C 382.386,112.675 382.719,111.675 382.5,110.5C 384.661,110.826 386.494,111.826 388,113.5C 389.914,112.324 389.748,111.324 387.5,110.5C 388.189,108.556 388.689,106.556 389,104.5C 390.107,105.712 390.607,105.379 390.5,103.5C 394.749,110.329 398.749,117.329 402.5,124.5C 402.5,125.167 402.5,125.833 402.5,126.5C 398.196,120.006 394.03,113.34 390,106.5C 389.333,107.833 389.333,109.167 390,110.5C 394.416,118.333 399.082,126 404,133.5C 404.464,132.906 404.631,132.239 404.5,131.5C 405.139,132.097 405.472,132.93 405.5,134C 405.316,135.376 404.649,136.209 403.5,136.5C 399.19,130.563 395.357,124.23 392,117.5C 391.333,116.167 390.667,116.167 390,117.5C 393.901,124.63 397.734,131.964 401.5,139.5C 401.167,139.5 400.833,139.5 400.5,139.5C 397.863,136.011 395.363,132.345 393,128.5C 392.4,131.095 392.9,133.429 394.5,135.5C 391.828,133.609 390.828,130.942 391.5,127.5C 391.938,127.565 392.272,127.399 392.5,127C 390.447,123.717 388.28,120.55 386,117.5C 385.5,117.833 385,118.167 384.5,118.5C 386.178,121.195 387.844,123.861 389.5,126.5C 388.833,126.5 388.167,126.5 387.5,126.5C 385.858,123.898 384.192,121.231 382.5,118.5C 381.675,117.614 380.675,117.281 379.5,117.5C 378.434,111.368 375.767,106.035 371.5,101.5C 371.232,99.901 371.566,98.5676 372.5,97.5 Z"/></g>
<g><path style="opacity:1" fill="#e6eaf4" d="M 178.5,140.5 C 178.167,140.5 177.833,140.5 177.5,140.5C 173.277,132.393 168.777,124.393 164,116.5C 163.333,115.167 163.333,113.833 164,112.5C 169.626,121.584 175.126,130.75 180.5,140C 179.906,140.464 179.239,140.631 178.5,140.5 Z"/></g>
<g><path style="opacity:1" fill="#e9ebf3" d="M 220.5,122.5 C 221.323,124.455 221.49,126.455 221,128.5C 217.236,122.637 213.736,116.637 210.5,110.5C 210.775,108.158 211.608,108.158 213,110.5C 214.968,114.939 217.468,118.939 220.5,122.5 Z"/></g>
<g><path style="opacity:1" fill="#dfe3f0" d="M 275.5,109.5 C 278.346,111.475 280.513,114.141 282,117.5C 283.301,119.365 283.635,121.365 283,123.5C 279.691,119.213 277.191,114.547 275.5,109.5 Z"/></g>
<g><path style="opacity:1" fill="#e1e4f1" d="M 469.5,98.5 C 475.137,106.993 480.637,115.66 486,124.5C 486.667,126.167 486.667,127.833 486,129.5C 482.333,123.5 478.667,117.5 475,111.5C 472.597,107.365 470.763,103.032 469.5,98.5 Z"/></g>
<g><path style="opacity:1" fill="#e4e7f2" d="M 94.5,128.5 C 96.2212,132.273 98.2212,135.939 100.5,139.5C 99.132,140.594 97.9653,140.26 97,138.5C 92.5564,131.274 88.3898,123.941 84.5,116.5C 84.7748,114.158 85.6081,114.158 87,116.5C 88.7744,121.07 91.2744,125.07 94.5,128.5 Z"/></g>
<g><path style="opacity:1" fill="#e7eaf5" d="M 85.5,111.5 C 85.4431,110.391 85.1098,109.391 84.5,108.5C 84.3505,107.448 84.5172,106.448 85,105.5C 88.5855,111.002 91.9188,116.669 95,122.5C 95.6667,123.833 95.6667,125.167 95,126.5C 92.3084,121.097 89.1417,116.097 85.5,111.5 Z"/></g>
<g><path style="opacity:1" fill="#e7e8f5" d="M 369.5,114.5 C 373.636,119.115 376.136,124.449 377,130.5C 373.14,125.782 370.64,120.449 369.5,114.5 Z"/></g>
<g><path style="opacity:1" fill="#e6eaf3" d="M 391.5,127.5 C 390.508,127.672 389.842,127.338 389.5,126.5C 387.844,123.861 386.178,121.195 384.5,118.5C 385,118.167 385.5,117.833 386,117.5C 388.28,120.55 390.447,123.717 392.5,127C 392.272,127.399 391.938,127.565 391.5,127.5 Z"/></g>
<g><path style="opacity:1" fill="#e7e9f4" d="M 402.5,126.5 C 403.441,128.05 404.107,129.716 404.5,131.5C 404.631,132.239 404.464,132.906 404,133.5C 399.082,126 394.416,118.333 390,110.5C 389.333,109.167 389.333,107.833 390,106.5C 394.03,113.34 398.196,120.006 402.5,126.5 Z"/></g>
<g><path style="opacity:1" fill="#979dca" d="M 424.5,117.5 C 427.244,118.072 428.077,119.738 427,122.5C 425.628,121.09 424.795,119.423 424.5,117.5 Z"/></g>
<g><path style="opacity:1" fill="#e1e7f3" d="M 128.5,103.5 C 132.476,108.768 135.976,114.434 139,120.5C 140.301,122.365 140.635,124.365 140,126.5C 136.333,120.5 132.667,114.5 129,108.5C 128.506,106.866 128.34,105.199 128.5,103.5 Z"/></g>
<g><path style="opacity:1" fill="#e8ebf5" d="M 161.5,101.5 C 169.716,113.574 177.383,126.074 184.5,139C 184.43,139.765 184.097,140.265 183.5,140.5C 183.167,140.5 182.833,140.5 182.5,140.5C 175.736,127.964 168.736,115.631 161.5,103.5C 161.5,102.833 161.5,102.167 161.5,101.5 Z"/></g>
<g><path style="opacity:1" fill="#e7e8f4" d="M 370.5,107.5 C 374.637,113.828 378.637,120.328 382.5,127C 381.365,127.749 380.365,127.583 379.5,126.5C 375.116,120.735 372.116,114.402 370.5,107.5 Z"/></g>
<g><path style="opacity:1" fill="#e2e6f3" d="M 84.5,122.5 C 88.6005,128.517 92.6005,134.683 96.5,141C 95.2161,141.684 94.0495,141.517 93,140.5C 90.3333,135.833 87.6667,131.167 85,126.5C 84.51,125.207 84.3433,123.873 84.5,122.5 Z"/></g>
<g><path style="opacity:1" fill="#e5e8f1" d="M 128.5,112.5 C 132.559,118.266 136.392,124.266 140,130.5C 140.667,132.167 140.667,133.833 140,135.5C 136.919,129.669 133.585,124.002 130,118.5C 128.872,116.655 128.372,114.655 128.5,112.5 Z"/></g>
<g><path style="opacity:1" fill="#e3e8f0" d="M 420.5,118.5 C 421.496,118.414 422.329,118.748 423,119.5C 427.167,126.5 431.333,133.5 435.5,140.5C 435,140.833 434.5,141.167 434,141.5C 428.875,134.207 424.375,126.54 420.5,118.5 Z"/></g>
<g><path style="opacity:1" fill="#e1e6f0" d="M 186.5,125.5 C 186.649,126.552 186.483,127.552 186,128.5C 183.971,124.42 181.471,120.754 178.5,117.5C 178.34,115.801 178.506,114.134 179,112.5C 181.512,116.861 184.012,121.194 186.5,125.5 Z"/></g>
<g><path style="opacity:1" fill="#e4e9f3" d="M 210.5,116.5 C 215.976,124.099 220.976,132.099 225.5,140.5C 225.167,140.833 224.833,141.167 224.5,141.5C 219.515,134.876 215.015,127.876 211,120.5C 210.51,119.207 210.343,117.873 210.5,116.5 Z"/></g>
<g><path style="opacity:1" fill="#e0e5f1" d="M 274.5,114.5 C 277.225,118.268 279.725,122.268 282,126.5C 282.667,127.833 282.667,129.167 282,130.5C 278.114,125.732 275.614,120.399 274.5,114.5 Z"/></g>
<g><path style="opacity:1" fill="#e7eaf4" d="M 379.5,117.5 C 380.675,117.281 381.675,117.614 382.5,118.5C 384.192,121.231 385.858,123.898 387.5,126.5C 386.614,127.776 385.614,127.776 384.5,126.5C 382.555,123.607 380.889,120.607 379.5,117.5 Z"/></g>
<g><path style="opacity:1" fill="#e4e6f2" d="M 274.5,121.5 C 277.379,125.925 279.713,130.592 281.5,135.5C 280.504,135.586 279.671,135.252 279,134.5C 277.149,130.797 275.315,127.13 273.5,123.5C 273.543,122.584 273.876,121.917 274.5,121.5 Z"/></g>
<g><path style="opacity:1" fill="#eaecf5" d="M 368.5,121.5 C 371.916,125.323 374.582,129.657 376.5,134.5C 376.649,135.552 376.483,136.552 376,137.5C 372.654,132.479 370.154,127.146 368.5,121.5 Z"/></g>
<g><path style="opacity:1" fill="#e6e9f4" d="M 415.5,118.5 C 417.624,119.031 419.124,120.365 420,122.5C 423.081,128.331 426.415,133.998 430,139.5C 429.743,141.975 428.743,141.975 427,139.5C 422.634,132.766 418.801,125.766 415.5,118.5 Z"/></g>
<g><path style="opacity:1" fill="#e0e3f2" d="M 474.5,115.5 C 478.225,120.597 481.725,125.93 485,131.5C 486.301,133.365 486.635,135.365 486,137.5C 482.667,132.167 479.333,126.833 476,121.5C 474.872,119.655 474.372,117.655 474.5,115.5 Z"/></g>
<g><path style="opacity:1" fill="#e4e5f3" d="M 438.5,121.5 C 440.558,123.927 442.391,126.593 444,129.5C 445.59,131.65 446.257,133.983 446,136.5C 441.871,132.235 439.371,127.235 438.5,121.5 Z"/></g>
<g><path style="opacity:1" fill="#e0e3f0" d="M 128.5,120.5 C 132.076,126.594 135.909,132.594 140,138.5C 140.749,139.635 140.583,140.635 139.5,141.5C 136.837,137.993 134.337,134.327 132,130.5C 129.965,127.439 128.799,124.105 128.5,120.5 Z"/></g>
<g><path style="opacity:1" fill="#e2e5f0" d="M 318.5,112.5 C 324.643,121.437 330.31,130.77 335.5,140.5C 335.167,140.833 334.833,141.167 334.5,141.5C 327.447,132.78 322.113,123.114 318.5,112.5 Z"/></g>
<g><path style="opacity:1" fill="#e0e2f0" d="M 375.5,139.5 C 375.483,141.028 374.816,141.528 373.5,141C 372.117,139.729 371.117,138.229 370.5,136.5C 368.221,134.277 367.388,131.611 368,128.5C 370.523,132.233 373.023,135.899 375.5,139.5 Z"/></g>
<g><path style="opacity:1" fill="#e2e6f2" d="M 403.5,136.5 C 406.605,141.047 405.938,142.047 401.5,139.5C 397.734,131.964 393.901,124.63 390,117.5C 390.667,116.167 391.333,116.167 392,117.5C 395.357,124.23 399.19,130.563 403.5,136.5 Z"/></g>
<g><path style="opacity:1" fill="#e8eef4" d="M 97.5,131.5 C 98.3864,130.224 99.3864,130.224 100.5,131.5C 102.167,134.167 103.833,136.833 105.5,139.5C 105.167,139.833 104.833,140.167 104.5,140.5C 101.916,137.651 99.583,134.651 97.5,131.5 Z"/></g>
<g><path style="opacity:1" fill="#474598" d="M 274.5,121.5 C 273.876,121.917 273.543,122.584 273.5,123.5C 275.315,127.13 277.149,130.797 279,134.5C 279.671,135.252 280.504,135.586 281.5,135.5C 281.435,137.696 280.768,139.696 279.5,141.5C 278.893,141.376 278.56,141.043 278.5,140.5C 279.573,139.749 279.74,138.749 279,137.5C 276.752,134.672 274.752,131.672 273,128.5C 273.247,132.028 274.414,135.361 276.5,138.5C 275.842,139.398 275.176,140.398 274.5,141.5C 273.893,141.376 273.56,141.043 273.5,140.5C 274.097,140.265 274.43,139.765 274.5,139C 273.683,137.51 272.85,136.01 272,134.5C 270.198,136.273 270.365,137.94 272.5,139.5C 271.849,140.091 271.182,140.757 270.5,141.5C 269.155,136.392 269.821,131.559 272.5,127C 272.043,126.586 271.709,126.086 271.5,125.5C 272.189,123.556 272.689,121.556 273,119.5C 273.717,120.044 274.217,120.711 274.5,121.5 Z"/></g>
<g><path style="opacity:1" fill="#e3e8f1" d="M 102.5,131.5 C 103.386,130.224 104.386,130.224 105.5,131.5C 107.167,134.167 108.833,136.833 110.5,139.5C 109.5,140.833 108.5,140.833 107.5,139.5C 106.309,136.432 104.642,133.765 102.5,131.5 Z"/></g>
<g><path style="opacity:1" fill="#e4e9f2" d="M 227.5,130.5 C 229.017,130.511 230.184,131.177 231,132.5C 232.3,135.295 233.8,137.961 235.5,140.5C 235.167,140.833 234.833,141.167 234.5,141.5C 231.41,138.321 229.077,134.654 227.5,130.5 Z"/></g>
<g><path style="opacity:1" fill="#e1e7ef" d="M 347.5,130.5 C 350.244,131.072 351.077,132.738 350,135.5C 348.628,134.09 347.795,132.423 347.5,130.5 Z"/></g>
<g><path style="opacity:1" fill="#dee2ee" d="M 415.5,124.5 C 418.309,128.768 421.143,133.102 424,137.5C 424.688,138.332 424.521,138.998 423.5,139.5C 419.008,135.519 416.342,130.519 415.5,124.5 Z"/></g>
<g><path style="opacity:1" fill="#e4e8f3" d="M 474.5,123.5 C 478.309,128.433 481.642,133.766 484.5,139.5C 484.167,139.833 483.833,140.167 483.5,140.5C 481.345,137.538 479.179,134.538 477,131.5C 475.293,129.091 474.46,126.425 474.5,123.5 Z"/></g>
<g><path style="opacity:1" fill="#dfe4f0" d="M 210.5,124.5 C 214.309,129.433 217.642,134.766 220.5,140.5C 220.167,140.833 219.833,141.167 219.5,141.5C 216.856,138.891 214.689,135.891 213,132.5C 211.293,130.091 210.46,127.425 210.5,124.5 Z"/></g>
<g><path style="opacity:1" fill="#e1e3f0" d="M 332.5,130.5 C 333.675,130.281 334.675,130.614 335.5,131.5C 336.913,134.661 338.58,137.661 340.5,140.5C 340.167,140.833 339.833,141.167 339.5,141.5C 336.41,138.321 334.077,134.654 332.5,130.5 Z"/></g>
<g><path style="opacity:1" fill="#dde1ed" d="M 342.5,130.5 C 345.091,131.254 346.924,132.921 348,135.5C 349.541,137.477 350.041,139.477 349.5,141.5C 346.41,138.321 344.077,134.654 342.5,130.5 Z"/></g>
<g><path style="opacity:1" fill="#484499" d="M 160.5,95.5 C 165.809,102.765 170.642,110.432 175,118.5C 175.483,117.552 175.649,116.552 175.5,115.5C 176.158,116.398 176.824,117.398 177.5,118.5C 178.107,118.376 178.44,118.043 178.5,117.5C 181.471,120.754 183.971,124.42 186,128.5C 186.483,127.552 186.649,126.552 186.5,125.5C 187.182,130.796 186.515,136.129 184.5,141.5C 183.893,141.376 183.56,141.043 183.5,140.5C 184.097,140.265 184.43,139.765 184.5,139C 177.383,126.074 169.716,113.574 161.5,101.5C 160.053,100.866 159.387,99.6991 159.5,98C 159.528,96.9302 159.861,96.0968 160.5,95.5 Z"/></g>
<g><path style="opacity:1" fill="#e2e6f2" d="M 177.5,119.5 C 180.137,122.989 182.637,126.655 185,130.5C 185.667,132.167 185.667,133.833 185,135.5C 181.323,130.675 178.823,125.341 177.5,119.5 Z"/></g>
<g><path style="opacity:1" fill="#4c4a9c" d="M 368.5,121.5 C 370.154,127.146 372.654,132.479 376,137.5C 376.483,136.552 376.649,135.552 376.5,134.5C 377.93,136.455 377.597,138.121 375.5,139.5C 373.023,135.899 370.523,132.233 368,128.5C 367.388,131.611 368.221,134.277 370.5,136.5C 369.662,136.842 369.328,137.508 369.5,138.5C 368.685,137.571 367.852,136.571 367,135.5C 366.591,137.695 367.091,139.695 368.5,141.5C 366.897,142.677 365.564,142.511 364.5,141C 366.398,140.36 366.732,139.027 365.5,137C 366.188,131.636 367.188,126.47 368.5,121.5 Z"/></g>
<g><path style="opacity:1" fill="#e1e6f4" d="M 107.5,131.5 C 107.735,130.903 108.235,130.57 109,130.5C 112.489,133.129 113.989,136.463 113.5,140.5C 111.441,137.459 109.441,134.459 107.5,131.5 Z"/></g>
<g><path style="opacity:1" fill="#dfe4ee" d="M 222.5,130.5 C 225.091,131.254 226.924,132.921 228,135.5C 229.541,137.477 230.041,139.477 229.5,141.5C 226.41,138.321 224.077,134.654 222.5,130.5 Z"/></g>
<g><path style="opacity:1" fill="#dce2f0" d="M 232.5,130.5 C 233.675,130.281 234.675,130.614 235.5,131.5C 236.913,134.661 238.58,137.661 240.5,140.5C 240.167,140.833 239.833,141.167 239.5,141.5C 236.41,138.321 234.077,134.654 232.5,130.5 Z"/></g>
<g><path style="opacity:1" fill="#eaeef6" d="M 237.5,130.5 C 240.944,131.045 242.111,133.045 241,136.5C 239.558,134.609 238.391,132.609 237.5,130.5 Z"/></g>
<g><path style="opacity:1" fill="#e3e9f2" d="M 278.5,140.5 C 277.5,140.167 276.833,139.5 276.5,138.5C 274.414,135.361 273.247,132.028 273,128.5C 274.752,131.672 276.752,134.672 279,137.5C 279.74,138.749 279.573,139.749 278.5,140.5 Z"/></g>
<g><path style="opacity:1" fill="#e0e5f2" d="M 318.5,120.5 C 322.474,127.103 326.474,133.77 330.5,140.5C 330.167,140.833 329.833,141.167 329.5,141.5C 323.973,135.444 320.306,128.444 318.5,120.5 Z"/></g>
<g><path style="opacity:1" fill="#e1e6f1" d="M 337.5,130.5 C 340.845,132.274 343.178,135.108 344.5,139C 344.167,139.5 343.833,140 343.5,140.5C 340.974,137.443 338.974,134.109 337.5,130.5 Z"/></g>
<g><path style="opacity:1" fill="#dee0ee" d="M 432.5,130.5 C 433.496,130.414 434.329,130.748 435,131.5C 436.333,133.5 437.667,135.5 439,137.5C 439.749,138.635 439.583,139.635 438.5,140.5C 435.468,137.766 433.468,134.432 432.5,130.5 Z"/></g>
<g><path style="opacity:1" fill="#dadfed" d="M 84.5,131.5 C 86.7957,133.401 88.629,135.734 90,138.5C 90.7494,139.635 90.5827,140.635 89.5,141.5C 86.7555,138.678 85.0888,135.344 84.5,131.5 Z"/></g>
<g><path style="opacity:1" fill="#e3e6f1" d="M 128.5,129.5 C 130.645,132.433 132.812,135.433 135,138.5C 135.749,139.635 135.583,140.635 134.5,141.5C 131.422,138.011 129.422,134.011 128.5,129.5 Z"/></g>
<g><path style="opacity:1" fill="#e6e9f4" d="M 173.5,140.5 C 171.167,137.167 168.833,133.833 166.5,130.5C 165.677,128.545 165.51,126.545 166,124.5C 169.292,129.583 172.459,134.75 175.5,140C 174.906,140.464 174.239,140.631 173.5,140.5 Z"/></g>
<g><path style="opacity:1" fill="#e4eaf4" d="M 437.5,128.5 C 439.558,130.927 441.391,133.593 443,136.5C 443.749,137.635 443.583,138.635 442.5,139.5C 440.302,136.467 438.302,133.3 436.5,130C 437.056,129.617 437.389,129.117 437.5,128.5 Z"/></g>
<g><path style="opacity:1" fill="#e6ecf5" d="M 474.5,131.5 C 476.142,134.102 477.808,136.769 479.5,139.5C 479.167,139.833 478.833,140.167 478.5,140.5C 475.82,138.137 474.487,135.137 474.5,131.5 Z"/></g>
<g><path style="opacity:1" fill="#e2e8f7" d="M 273.5,140.5 C 272.833,140.5 272.5,140.167 272.5,139.5C 270.365,137.94 270.198,136.273 272,134.5C 272.85,136.01 273.683,137.51 274.5,139C 274.43,139.765 274.097,140.265 273.5,140.5 Z"/></g>
<g><path style="opacity:1" fill="#858ac7" d="M 83.5,137.5 C 85.7279,138.322 86.3946,139.655 85.5,141.5C 83.8888,140.68 83.2222,139.346 83.5,137.5 Z"/></g>
<g><path style="opacity:1" fill="#b4bbe7" d="M 318.5,137.5 C 320.088,138.635 320.421,139.969 319.5,141.5C 318.571,140.311 318.238,138.978 318.5,137.5 Z"/></g>
<g><path style="opacity:1" fill="#e2e9f2" d="M 318.5,129.5 C 320.934,132.849 323.267,136.349 325.5,140C 323.406,140.445 321.906,139.612 321,137.5C 319.293,135.091 318.46,132.425 318.5,129.5 Z"/></g>
<g><path style="opacity:1" fill="#dee4f2" d="M 400.5,139.5 C 400.483,141.028 399.816,141.528 398.5,141C 397.023,139.188 395.69,137.355 394.5,135.5C 392.9,133.429 392.4,131.095 393,128.5C 395.363,132.345 397.863,136.011 400.5,139.5 Z"/></g>
<g><path style="opacity:1" fill="#c3c8e2" d="M 128.5,137.5 C 130.476,138.427 130.809,139.76 129.5,141.5C 128.571,140.311 128.238,138.978 128.5,137.5 Z"/></g>
<g><path style="opacity:1" fill="#ced4ea" d="M 166.5,134.5 C 167.885,135.574 169.051,136.907 170,138.5C 170.749,139.635 170.583,140.635 169.5,141.5C 167.544,139.649 166.544,137.316 166.5,134.5 Z"/></g>
<g><path style="opacity:1" fill="#d4d4e9" d="M 209.5,131.5 C 212.853,134.204 214.52,137.538 214.5,141.5C 211.245,138.989 209.578,135.656 209.5,131.5 Z"/></g>
<g><path style="opacity:1" fill="#dadfef" d="M 369.5,138.5 C 371.129,140.196 370.796,141.196 368.5,141.5C 367.091,139.695 366.591,137.695 367,135.5C 367.852,136.571 368.685,137.571 369.5,138.5 Z"/></g>
<g><path style="opacity:1" fill="#babedf" d="M 192.5,172.5 C 193.649,172.791 194.316,173.624 194.5,175C 195.571,179.119 196.405,183.285 197,187.5C 198.206,182.469 199.54,177.469 201,172.5C 201.169,179.489 199.836,186.156 197,192.5C 195.182,185.895 193.682,179.228 192.5,172.5 Z"/></g>
<g><path style="opacity:1" fill="#f2f6fb" d="M 174.5,175.5 C 174.833,175.5 175.167,175.5 175.5,175.5C 175.334,180.511 175.501,185.511 176,190.5C 176.383,191.056 176.883,191.389 177.5,191.5C 177.5,192.167 177.167,192.5 176.5,192.5C 175.883,192.389 175.383,192.056 175,191.5C 174.501,186.177 174.334,180.844 174.5,175.5 Z"/></g>
<g><path style="opacity:1" fill="#9398cf" d="M 248.5,171.5 C 249.822,174.768 250.489,178.435 250.5,182.5C 250.333,186.167 250.167,189.833 250,193.5C 248.538,186.342 248.038,179.008 248.5,171.5 Z"/></g>
<g><path style="opacity:1" fill="#eff4fb" d="M 316.5,179.5 C 317.128,176.91 318.295,174.577 320,172.5C 320.667,179.167 320.667,185.833 320,192.5C 319.667,187.167 319.333,181.833 319,176.5C 318.623,177.942 317.79,178.942 316.5,179.5 Z"/></g>
<g><path style="opacity:1" fill="#a7add4" d="M 410.5,191.5 C 410.17,185.132 410.504,178.798 411.5,172.5C 412.663,178.137 412.83,183.804 412,189.5C 411.722,190.416 411.222,191.082 410.5,191.5 Z"/></g>
<g><path style="opacity:1" fill="#c5cce4" d="M 316.5,179.5 C 316.778,181.346 316.111,182.68 314.5,183.5C 313.237,181.971 312.237,180.305 311.5,178.5C 311.44,177.957 311.107,177.624 310.5,177.5C 309.833,182.651 309.166,187.651 308.5,192.5C 308.17,185.8 308.503,179.134 309.5,172.5C 311.333,175.5 313.167,178.5 315,181.5C 315.278,180.584 315.778,179.918 316.5,179.5 Z"/></g>
<g><path style="opacity:1" fill="#b3b8dd" d="M 330.5,191.5 C 329.883,191.389 329.383,191.056 329,190.5C 328.333,185.167 328.333,179.833 329,174.5C 331.626,170.928 334.626,170.595 338,173.5C 338.667,179.5 338.667,185.5 338,191.5C 335.208,193.935 332.708,193.935 330.5,191.5 Z"/></g>
<g><path style="opacity:1" fill="#303291" d="M 330.5,191.5 C 330.334,185.824 330.501,180.157 331,174.5C 332.726,173.424 334.559,173.257 336.5,174C 337.639,179.416 337.806,184.916 337,190.5C 334.959,191.423 332.792,191.756 330.5,191.5 Z"/></g>
<g><path style="opacity:1" fill="#9ea0d0" d="M 365.5,171.5 C 369.048,171.095 372.381,171.595 375.5,173C 372.854,173.497 370.187,173.664 367.5,173.5C 367.5,176.833 367.5,180.167 367.5,183.5C 374.167,183.833 374.167,184.167 367.5,184.5C 367.5,186.833 367.5,189.167 367.5,191.5C 369.924,191.192 372.257,191.526 374.5,192.5C 371.572,193.484 368.572,193.817 365.5,193.5C 365.5,186.167 365.5,178.833 365.5,171.5 Z"/></g>
<g><path style="opacity:1" fill="#b5b9dd" d="M 421.5,172.5 C 429.505,171.342 432.339,174.675 430,182.5C 428.211,184.229 426.044,184.896 423.5,184.5C 423.817,187.572 423.484,190.572 422.5,193.5C 421.503,186.532 421.17,179.532 421.5,172.5 Z"/></g>
<g><path style="opacity:1" fill="#313291" d="M 423.5,173.5 C 429.191,173.554 430.858,176.221 428.5,181.5C 426.955,182.452 425.288,182.785 423.5,182.5C 423.5,179.5 423.5,176.5 423.5,173.5 Z"/></g>
<g><path style="opacity:1" fill="#e2eaf3" d="M 162.5,178.5 C 162.617,180.484 161.95,182.15 160.5,183.5C 158.515,181.543 157.015,179.21 156,176.5C 155.667,181.833 155.333,187.167 155,192.5C 154.333,185.833 154.333,179.167 155,172.5C 156.92,175.339 158.587,178.339 160,181.5C 160.852,180.429 161.685,179.429 162.5,178.5 Z"/></g>
<g><path style="opacity:1" fill="#8486c6" d="M 311.5,178.5 C 310.834,183.349 310.167,188.349 309.5,193.5C 308.893,193.376 308.56,193.043 308.5,192.5C 309.166,187.651 309.833,182.651 310.5,177.5C 311.107,177.624 311.44,177.957 311.5,178.5 Z"/></g>
<g><path style="opacity:1" fill="#a9aed8" d="M 162.5,178.5 C 162.749,176.064 163.749,174.064 165.5,172.5C 166.833,179.167 166.833,185.833 165.5,192.5C 164.671,187.533 164.171,182.533 164,177.5C 163.617,178.056 163.117,178.389 162.5,178.5 Z"/></g>
<g><path style="opacity:1" fill="#313394" d="M 177.5,191.5 C 176.883,191.389 176.383,191.056 176,190.5C 175.501,185.511 175.334,180.511 175.5,175.5C 177.456,173.852 179.789,173.185 182.5,173.5C 182.5,179.5 182.5,185.5 182.5,191.5C 180.833,191.5 179.167,191.5 177.5,191.5 Z"/></g>
<g><path style="opacity:1" fill="#e2eaef" d="M 410.5,191.5 C 408.44,192.811 406.274,192.811 404,191.5C 403.333,184.833 403.333,178.167 404,171.5C 404.333,177.833 404.667,184.167 405,190.5C 406.699,191.406 408.533,191.739 410.5,191.5 Z"/></g>
<g><path style="opacity:1" fill="#d6dcf1" d="M 211.5,172.5 C 214.187,172.336 216.854,172.503 219.5,173C 217.19,173.497 214.857,173.663 212.5,173.5C 212.5,176.833 212.5,180.167 212.5,183.5C 220.5,183.833 220.5,184.167 212.5,184.5C 212.5,186.833 212.5,189.167 212.5,191.5C 214.924,191.192 217.257,191.526 219.5,192.5C 216.914,193.48 214.247,193.813 211.5,193.5C 211.5,186.5 211.5,179.5 211.5,172.5 Z"/></g>
<g><path style="opacity:1" fill="#c2c8e4" d="M 347.5,172.5 C 349.177,177.336 350.677,182.336 352,187.5C 352.954,182.44 354.12,177.44 355.5,172.5C 353.514,199.111 350.848,199.111 347.5,172.5 Z"/></g>
<g><path style="opacity:1" fill="#a4a7d2" d="M 176.5,192.5 C 177.167,192.5 177.5,192.167 177.5,191.5C 179.167,191.5 180.833,191.5 182.5,191.5C 182.5,185.5 182.5,179.5 182.5,173.5C 179.789,173.185 177.456,173.852 175.5,175.5C 175.167,175.5 174.833,175.5 174.5,175.5C 175.108,173.01 176.775,171.676 179.5,171.5C 181.601,171.632 183.101,172.632 184,174.5C 184.667,180.167 184.667,185.833 184,191.5C 181.561,193.498 179.061,193.831 176.5,192.5 Z"/></g>
<g><path style="opacity:1" fill="#bdc2e1" d="M 260.5,172.5 C 263.459,176.836 265.959,181.502 268,186.5C 268.172,181.798 268.672,177.132 269.5,172.5C 272.31,196.248 269.81,197.581 262,176.5C 261.667,181.833 261.333,187.167 261,192.5C 260.5,185.842 260.334,179.175 260.5,172.5 Z"/></g>
</svg>
